<svg version="1" xmlns="http://www.w3.org/2000/svg" width="422.667" height="422.667" viewBox="0 0 317.000000 317.000000"><path d="M145 .6c-26.5 3.2-49.3 10.6-68.4 22.3-26.5 16.3-49 41.3-61.6 68.6-10 21.4-14.4 42-14.4 67s4.4 45.6 14.4 67c15.1 32.7 44 61.5 76.7 76.6 21.7 10 41.7 14.3 66.8 14.3 25 0 45.6-4.4 67-14.4 32.8-15.2 61.3-43.7 76.5-76.5 10-21.4 14.4-42 14.4-67s-4.4-45.6-14.4-67c-10.1-21.8-28.4-44.6-47.5-59C234.8 17.6 209.9 6.7 186 2.6c-9.3-1.7-34.1-2.8-41-2zm49.2 47c4.1 1.4 8.4 1.8 18.3 1.8 11.1-.1 14.9-.5 25.8-3.2 7.1-1.8 13.3-3.2 13.9-3.2 2.3 0-.8 8.5-10.2 27.5-10.8 21.7-19 34.2-30.1 45.6-3.8 3.8-6.7 6.9-6.5 6.9.2 0 3.4-1.4 7.2-3.1 11.2-5.2 21.8-5.1 35.9.2 6 2.2 14.8 9.3 14.3 11.4-.2.7-8.5 9.7-18.6 20L226 170.3l-9.4-9.9c-9.8-10.5-16.3-14.8-23.4-16l-4.2-.7v103.6l6.4-.7c7.4-.7 23.8-5.4 32.2-9.1 8.9-3.9 22.1-13.2 31-21.7 7.1-6.8 10.4-9.1 10.4-7.3 0 1.6-5.7 11.5-12.2 21.1-18.2 27.3-42.8 43.8-75.8 51-12.5 2.8-40.1 2.6-52.6-.3-27.2-6.4-48.5-19.4-65-39.8-30.5-37.7-37-85.5-16.8-124.5 6-11.6 12.9-20.5 25.9-33.5 8.1-8.1 12.8-12 17.7-14.5 3.7-1.9 7-3.2 7.3-2.8.3.3-1.1 2.9-3.3 5.7-4.4 5.9-12.5 20.7-12 22 .2.5 22.1-11.6 48.8-26.8l48.4-27.8 4.8 3.8c2.6 2 7.1 4.5 10 5.5z"/><path d="M159 118v35.1l6.2-4.8c3.4-2.6 8.4-6.9 11-9.4l4.8-4.5v-11c0-12 .6-13.4 5.2-13.4h2.8v17.2l6.8-6c10.6-9.4 31.4-34.4 29.9-35.9-.2-.2-2.9.8-5.9 2.2-14.7 6.7-35.4 5.3-59-4-1.7-.7-1.8 1.4-1.8 34.5zM96 95.6c-8 4.7-15.3 9.3-16.2 10.2C77.5 108 76 118.6 76 133c0 25.2 6.2 46.6 19.5 66.5 7.4 11.2 7.4 11.2 12.1 7.1l3.9-3.4.4-56.5c.2-31.1-.1-57.2-.6-58.1-.7-1.3-3.2-.1-15.3 7zM170.3 153.5c-5.9 4.8-10.5 9.5-10.8 10.7-.3 1.3-.6 5.2-.7 8.7l-.3 6.4-24.8 18-24.7 18.1 3.7 3.9c13.2 13.6 40.3 25.9 60.4 27.4l7.7.6.4-48.9c.2-26.9.1-49.9-.2-51.1-.5-2.1-1.3-1.6-10.7 6.2z"/></svg>